<?xml version="1.0" encoding="utf-8"?>
<!-- Generator: Adobe Illustrator 16.0.4, SVG Export Plug-In . SVG Version: 6.00 Build 0)  -->
<!DOCTYPE svg PUBLIC "-//W3C//DTD SVG 1.1//EN" "http://www.w3.org/Graphics/SVG/1.1/DTD/svg11.dtd">
<svg version="1.1" id="Ebene_1" xmlns="http://www.w3.org/2000/svg" xmlns:xlink="http://www.w3.org/1999/xlink" x="0px" y="0px"
	 width="100px" height="100px" viewBox="0 0 100 100" enable-background="new 0 0 100 100" xml:space="preserve">
<path d="M93.594,72.5H38.75v-7.031c0-2.338-1.881-4.219-4.219-4.219h-8.438c-2.338,0-4.219,1.881-4.219,4.219V72.5H6.405
	C5.632,72.5,5,73.133,5,73.906v2.812c0,0.773,0.633,1.406,1.405,1.406h15.47v7.029c0,2.34,1.881,4.221,4.219,4.221h8.438
	c2.338,0,4.219-1.881,4.219-4.221v-7.029h54.843c0.773,0,1.406-0.633,1.406-1.406v-2.812C95,73.133,94.367,72.5,93.594,72.5z
	 M33.125,83.75H27.5V66.875h5.625V83.75z M93.594,21.875H50v-7.031c0-2.338-1.881-4.219-4.219-4.219h-8.438
	c-2.338,0-4.219,1.881-4.219,4.219v7.031H6.405C5.632,21.875,5,22.508,5,23.282v2.812C5,26.867,5.632,27.5,6.405,27.5h26.72v7.031
	c0,2.338,1.881,4.219,4.219,4.219h8.438C48.12,38.75,50,36.869,50,34.53V27.5h43.593c0.773,0,1.406-0.633,1.406-1.406v-2.812
	C95,22.508,94.367,21.875,93.594,21.875z M44.375,33.125H38.75V16.25h5.625V33.125z M93.594,47.188H78.125v-7.031
	c0-2.338-1.881-4.219-4.219-4.219h-8.438c-2.338,0-4.219,1.881-4.219,4.219v7.031H6.405C5.632,47.188,5,47.821,5,48.594v2.812
	c0,0.773,0.633,1.406,1.405,1.406H61.25v7.031c0,2.338,1.881,4.219,4.219,4.219h8.438c2.338,0,4.219-1.881,4.219-4.219v-7.031
	h15.469c0.773,0,1.406-0.633,1.406-1.406v-2.812C95,47.82,94.367,47.188,93.594,47.188z M72.5,58.438h-5.625V41.562H72.5V58.438z"/>
</svg>
